<?xml version="1.0" encoding="UTF-8" standalone="no"?>
<svg
   xmlns:dc="http://purl.org/dc/elements/1.1/"
   xmlns:cc="http://creativecommons.org/ns#"
   xmlns:rdf="http://www.w3.org/1999/02/22-rdf-syntax-ns#"
   xmlns:svg="http://www.w3.org/2000/svg"
   xmlns="http://www.w3.org/2000/svg"
   xmlns:xlink="http://www.w3.org/1999/xlink"
   xmlns:sodipodi="http://sodipodi.sourceforge.net/DTD/sodipodi-0.dtd"
   xmlns:inkscape="http://www.inkscape.org/namespaces/inkscape"
   width="600"
   height="480"
   viewBox="0 0 600 480"
   id="svg2"
   version="1.1"
   inkscape:version="0.47 r22583"
   sodipodi:docname="bw-gnuplot-template.svg">
  <metadata
     id="metadata132">
    <rdf:RDF>
      <cc:Work
         rdf:about="">
        <dc:format>image/svg+xml</dc:format>
        <dc:type
           rdf:resource="http://purl.org/dc/dcmitype/StillImage" />
      </cc:Work>
    </rdf:RDF>
  </metadata>
  <sodipodi:namedview
     pagecolor="#ffffff"
     bordercolor="#666666"
     borderopacity="1"
     objecttolerance="10"
     gridtolerance="10"
     guidetolerance="10"
     inkscape:pageopacity="0"
     inkscape:pageshadow="2"
     inkscape:window-width="1216"
     inkscape:window-height="740"
     id="namedview130"
     showgrid="false"
     showguides="true"
     inkscape:guide-bbox="true"
     inkscape:zoom="0.9641276"
     inkscape:cx="145.45614"
     inkscape:cy="170.42578"
     inkscape:window-x="0"
     inkscape:window-y="26"
     inkscape:window-maximized="0"
     inkscape:current-layer="svg2" />
  <desc
     id="desc4">Produced by GNUPLOT 4.4 patchlevel 0 </desc>
  <defs
     id="defs6">
    <marker
       inkscape:stockid="Arrow1Lend"
       orient="auto"
       refY="0.0"
       refX="0.0"
       id="Arrow1Lend"
       style="overflow:visible;">
      <path
         id="path3756"
         d="M 0.0,0.0 L 5.0,-5.0 L -12.5,0.0 L 5.0,5.0 L 0.0,0.0 z "
         style="fill-rule:evenodd;stroke:#000000;stroke-width:1.0pt;marker-start:none;"
         transform="scale(0.8) rotate(180) translate(12.5,0)" />
    </marker>
    <marker
       inkscape:stockid="Arrow1Lstart"
       orient="auto"
       refY="0.0"
       refX="0.0"
       id="Arrow1Lstart"
       style="overflow:visible">
      <path
         id="path3753"
         d="M 0.0,0.0 L 5.0,-5.0 L -12.5,0.0 L 5.0,5.0 L 0.0,0.0 z "
         style="fill-rule:evenodd;stroke:#000000;stroke-width:1.0pt;marker-start:none"
         transform="scale(0.8) translate(12.5,0)" />
    </marker>
    <marker
       inkscape:stockid="Arrow1Sstart"
       orient="auto"
       refY="0.0"
       refX="0.0"
       id="Arrow1Sstart"
       style="overflow:visible">
      <path
         id="path3765"
         d="M 0.0,0.0 L 5.0,-5.0 L -12.5,0.0 L 5.0,5.0 L 0.0,0.0 z "
         style="fill-rule:evenodd;stroke:#000000;stroke-width:1.0pt;marker-start:none"
         transform="scale(0.2) translate(6,0)" />
    </marker>
    <inkscape:perspective
       sodipodi:type="inkscape:persp3d"
       inkscape:vp_x="0 : 240 : 1"
       inkscape:vp_y="0 : 1000 : 0"
       inkscape:vp_z="600 : 240 : 1"
       inkscape:persp3d-origin="300 : 160 : 1"
       id="perspective134" />
    <circle
       id="gpDot"
       r="0.5"
       stroke-width="0.5" />
    <path
       id="gpPt0"
       stroke-width="0.222"
       stroke="currentColor"
       d="M-1,0 h2 M0,-1 v2" />
    <path
       id="gpPt1"
       stroke-width="0.222"
       stroke="currentColor"
       d="M-1,-1 L1,1 M1,-1 L-1,1" />
    <path
       id="gpPt2"
       stroke-width="0.222"
       stroke="currentColor"
       d="M-1,0 L1,0 M0,-1 L0,1 M-1,-1 L1,1 M-1,1 L1,-1" />
    <rect
       id="gpPt3"
       stroke-width="0.222"
       stroke="currentColor"
       x="-1"
       y="-1"
       width="2"
       height="2" />
    <rect
       id="gpPt4"
       stroke-width="0.222"
       stroke="currentColor"
       fill="currentColor"
       x="-1"
       y="-1"
       width="2"
       height="2" />
    <circle
       id="gpPt5"
       stroke-width="0.222"
       stroke="currentColor"
       cx="0"
       cy="0"
       r="1" />
    <use
       xlink:href="#gpPt5"
       id="gpPt6"
       fill="currentColor"
       stroke="none" />
    <path
       id="gpPt7"
       stroke-width="0.222"
       stroke="currentColor"
       d="M0,-1.33 L-1.33,0.67 L1.33,0.67 z" />
    <use
       xlink:href="#gpPt7"
       id="gpPt8"
       fill="currentColor"
       stroke="none" />
    <use
       xlink:href="#gpPt7"
       id="gpPt9"
       stroke="currentColor"
       transform="rotate(180)" />
    <use
       xlink:href="#gpPt9"
       id="gpPt10"
       fill="currentColor"
       stroke="none" />
    <use
       xlink:href="#gpPt3"
       id="gpPt11"
       stroke="currentColor"
       transform="rotate(45)" />
    <use
       xlink:href="#gpPt11"
       id="gpPt12"
       fill="currentColor"
       stroke="none" />
  </defs>
  <g
     style="fill:none; color:white; stroke:currentColor; stroke-width:1.00; stroke-linecap:butt; stroke-linejoin:miter"
     id="g22" />
  <g
     style="fill:none; color:black; stroke:currentColor; stroke-width:1.00; stroke-linecap:butt; stroke-linejoin:miter"
     id="g24">
    <path
       d="M62.2,444.0 L71.2,444.0 M579.1,444.0 L570.1,444.0 "
       id="path26" />
    <g
       transform="translate(53.9,448.5)"
       style="stroke:none; fill:black; font-family:Arial; font-size:12.00pt; text-anchor:end"
       id="g28">
      <text
         id="text30"> 0</text>
    </g>
    <path
       d="M62.2,372.8 L71.2,372.8 M579.1,372.8 L570.1,372.8 "
       id="path32" />
    <g
       transform="translate(53.9,377.3)"
       style="stroke:none; fill:black; font-family:Arial; font-size:12.00pt; text-anchor:end"
       id="g34">
      <text
         id="text36"> 0.2</text>
    </g>
    <path
       d="M62.2,301.6 L71.2,301.6 M579.1,301.6 L570.1,301.6 "
       id="path38" />
    <g
       transform="translate(53.9,306.1)"
       style="stroke:none; fill:black; font-family:Arial; font-size:12.00pt; text-anchor:end"
       id="g40">
      <text
         id="text42"> 0.4</text>
    </g>
    <path
       d="M62.2,230.3 L71.2,230.3 M579.1,230.3 L570.1,230.3 "
       id="path44" />
    <g
       transform="translate(53.9,234.8)"
       style="stroke:none; fill:black; font-family:Arial; font-size:12.00pt; text-anchor:end"
       id="g46">
      <text
         id="text48"> 0.6</text>
    </g>
    <path
       d="M62.2,159.1 L71.2,159.1 M579.1,159.1 L570.1,159.1 "
       id="path50" />
    <g
       transform="translate(53.9,163.6)"
       style="stroke:none; fill:black; font-family:Arial; font-size:12.00pt; text-anchor:end"
       id="g52">
      <text
         id="text54"> 0.8</text>
    </g>
    <path
       d="M62.2,87.9 L71.2,87.9 M579.1,87.9 L570.1,87.9 "
       id="path56" />
    <g
       transform="translate(53.9,92.4)"
       style="stroke:none; fill:black; font-family:Arial; font-size:12.00pt; text-anchor:end"
       id="g58">
      <text
         id="text60"> 1</text>
    </g>
    <path
       d="M62.2,16.7 L71.2,16.7 M579.1,16.7 L570.1,16.7 "
       id="path62" />
    <g
       transform="translate(53.9,21.2)"
       style="stroke:none; fill:black; font-family:Arial; font-size:12.00pt; text-anchor:end"
       id="g64">
      <text
         id="text66"> 1.2</text>
    </g>
    <path
       d="M62.2,444.0 L62.2,435.0 M62.2,16.7 L62.2,25.7 "
       id="path68" />
    <g
       transform="translate(62.2,466.5)"
       style="stroke:none; fill:black; font-family:Arial; font-size:12.00pt; text-anchor:middle"
       id="g70">
      <text
         id="text72"> 0</text>
    </g>
    <path
       d="M165.6,444.0 L165.6,435.0 M165.6,16.7 L165.6,25.7 "
       id="path74" />
    <g
       transform="translate(165.6,466.5)"
       style="stroke:none; fill:black; font-family:Arial; font-size:12.00pt; text-anchor:middle"
       id="g76">
      <text
         id="text78"> 2</text>
    </g>
    <path
       d="M269.0,444.0 L269.0,435.0 M269.0,16.7 L269.0,25.7 "
       id="path80" />
    <g
       transform="translate(269.0,466.5)"
       style="stroke:none; fill:black; font-family:Arial; font-size:12.00pt; text-anchor:middle"
       id="g82">
      <text
         id="text84"> 4</text>
    </g>
    <path
       d="M372.3,444.0 L372.3,435.0 M372.3,16.7 L372.3,25.7 "
       id="path86" />
    <g
       transform="translate(372.3,466.5)"
       style="stroke:none; fill:black; font-family:Arial; font-size:12.00pt; text-anchor:middle"
       id="g88">
      <text
         id="text90"> 6</text>
    </g>
    <path
       d="M475.7,444.0 L475.7,435.0 M475.7,16.7 L475.7,25.7 "
       id="path92" />
    <g
       transform="translate(475.7,466.5)"
       style="stroke:none; fill:black; font-family:Arial; font-size:12.00pt; text-anchor:middle"
       id="g94">
      <text
         id="text96"> 8</text>
    </g>
    <path
       d="M579.1,444.0 L579.1,435.0 M579.1,16.7 L579.1,25.7 "
       id="path98" />
    <g
       transform="translate(579.1,466.5)"
       style="stroke:none; fill:black; font-family:Arial; font-size:12.00pt; text-anchor:middle"
       id="g100">
      <text
         id="text102"> 10</text>
    </g>
    <path
       d="M62.2,16.7 L62.2,444.0 L579.1,444.0 L579.1,16.7 L62.2,16.7 Z "
       id="path104" />
  </g>
  <a
     xlink:title="Plot #1"
     id="a106">
    <g
       style="fill:none; color:red; stroke:currentColor; stroke-width:1.00; stroke-linecap:butt; stroke-linejoin:miter"
       id="g108">
      <g
         transform="translate(512.0,39.2)"
         style="stroke:none; fill:black; font-family:Arial; font-size:12.00pt; text-anchor:end"
         id="g110">
        <text
           id="text112">Risposta in freq.</text>
      </g>
      <path
         d="M520.3,34.7 L562.5,34.7 M62.2,444.0 L67.4,444.0 L72.6,444.0 L77.9,444.0 L83.1,444.0 L88.3,444.0    L93.5,444.0 L98.7,444.0 L104.0,444.0 L109.2,444.0 L114.4,444.0 L119.6,444.0 L124.9,444.0 L130.1,444.0    L135.3,444.0 L140.5,443.9 L145.7,443.9 L151.0,443.8 L156.2,443.6 L161.4,443.4 L166.6,443.1 L171.8,442.6    L177.1,441.9 L182.3,440.8 L187.5,439.4 L192.7,437.4 L198.0,434.7 L203.2,431.2 L208.4,426.6 L213.6,420.9    L218.8,413.7 L224.1,405.0 L229.3,394.6 L234.5,382.4 L239.7,368.6 L244.9,353.0 L250.2,335.9 L255.4,317.5    L260.6,298.1 L265.8,278.1 L271.0,257.9 L276.3,237.7 L281.5,218.2 L286.7,199.6 L291.9,182.3 L297.2,166.4    L302.4,152.3 L307.6,139.9 L312.8,129.3 L318.0,120.5 L323.3,113.4 L328.5,107.9 L333.7,103.9 L338.9,101.4    L344.1,100.1 L349.4,100.2 L354.6,101.6 L359.8,104.3 L365.0,108.4 L370.3,114.0 L375.5,121.3 L380.7,130.3    L385.9,141.0 L391.1,153.6 L396.4,167.9 L401.6,183.9 L406.8,201.4 L412.0,220.1 L417.2,239.7 L422.5,259.9    L427.7,280.1 L432.9,300.1 L438.1,319.4 L443.3,337.7 L448.6,354.6 L453.8,370.0 L459.0,383.7 L464.2,395.7    L469.5,405.9 L474.7,414.5 L479.9,421.5 L485.1,427.1 L490.3,431.6 L495.6,435.0 L500.8,437.6 L506.0,439.6    L511.2,441.0 L516.4,442.0 L521.7,442.7 L526.9,443.1 L532.1,443.4 L537.3,443.7 L542.6,443.8 L547.8,443.9    L553.0,443.9 L558.2,444.0 L563.4,444.0 L568.7,444.0 L573.9,444.0 L579.1,444.0 "
         id="path114" />
    </g>
  </a>
  <a
     xlink:title="Plot #2"
     id="a116">
    <g
       style="fill:none; color:green; stroke:currentColor; stroke-width:1.00; stroke-linecap:butt; stroke-linejoin:miter"
       id="g118">
      <g
         transform="translate(512.0,57.2)"
         style="stroke:none; fill:black; font-family:Arial; font-size:12.00pt; text-anchor:end"
         id="g120">
        <text
           id="text122">1/sqrt(2)</text>
      </g>
      <path
         d="M520.3,52.7 L562.5,52.7 M62.2,192.2 L67.4,192.2 L72.6,192.2 L77.9,192.2 L83.1,192.2 L88.3,192.2    L93.5,192.2 L98.7,192.2 L104.0,192.2 L109.2,192.2 L114.4,192.2 L119.6,192.2 L124.9,192.2 L130.1,192.2    L135.3,192.2 L140.5,192.2 L145.7,192.2 L151.0,192.2 L156.2,192.2 L161.4,192.2 L166.6,192.2 L171.8,192.2    L177.1,192.2 L182.3,192.2 L187.5,192.2 L192.7,192.2 L198.0,192.2 L203.2,192.2 L208.4,192.2 L213.6,192.2    L218.8,192.2 L224.1,192.2 L229.3,192.2 L234.5,192.2 L239.7,192.2 L244.9,192.2 L250.2,192.2 L255.4,192.2    L260.6,192.2 L265.8,192.2 L271.0,192.2 L276.3,192.2 L281.5,192.2 L286.7,192.2 L291.9,192.2 L297.2,192.2    L302.4,192.2 L307.6,192.2 L312.8,192.2 L318.0,192.2 L323.3,192.2 L328.5,192.2 L333.7,192.2 L338.9,192.2    L344.1,192.2 L349.4,192.2 L354.6,192.2 L359.8,192.2 L365.0,192.2 L370.3,192.2 L375.5,192.2 L380.7,192.2    L385.9,192.2 L391.1,192.2 L396.4,192.2 L401.6,192.2 L406.8,192.2 L412.0,192.2 L417.2,192.2 L422.5,192.2    L427.7,192.2 L432.9,192.2 L438.1,192.2 L443.3,192.2 L448.6,192.2 L453.8,192.2 L459.0,192.2 L464.2,192.2    L469.5,192.2 L474.7,192.2 L479.9,192.2 L485.1,192.2 L490.3,192.2 L495.6,192.2 L500.8,192.2 L506.0,192.2    L511.2,192.2 L516.4,192.2 L521.7,192.2 L526.9,192.2 L532.1,192.2 L537.3,192.2 L542.6,192.2 L547.8,192.2    L553.0,192.2 L558.2,192.2 L563.4,192.2 L568.7,192.2 L573.9,192.2 L579.1,192.2 "
         id="path124" />
    </g>
  </a>
  <g
     style="fill:none; color:black; stroke:currentColor; stroke-width:1.00; stroke-linecap:butt; stroke-linejoin:miter"
     id="g126">
    <path
       d="M62.2,16.7 L62.2,444.0 L579.1,444.0 L579.1,16.7 L62.2,16.7 Z "
       id="path128" />
  </g>
  <path
     style="fill:none;stroke:#000000;stroke-width:1;stroke-linecap:butt;stroke-linejoin:miter;stroke-opacity:1;stroke-miterlimit:4;stroke-dasharray:3,1;stroke-dashoffset:0"
     d="m 289.30636,87.935715 0.88838,354.724825"
     id="path2940"
     sodipodi:nodetypes="cc" />
  <path
     style="fill:none;stroke:#000000;stroke-width:1;stroke-linecap:butt;stroke-linejoin:miter;stroke-miterlimit:4;stroke-opacity:1;stroke-dasharray:3, 1;stroke-dashoffset:0"
     d="M 403.39914,97.270579 404.28752,451.9954"
     id="path3731"
     sodipodi:nodetypes="cc" />
  <path
     sodipodi:nodetypes="cc"
     id="path3746"
     d="M 467.11296,98.85394 112.38814,99.74232"
     style="fill:none;stroke:#000000;stroke-width:1;stroke-linecap:butt;stroke-linejoin:miter;stroke-miterlimit:4;stroke-opacity:1;stroke-dasharray:3, 1;stroke-dashoffset:0" />
  <path
     style="fill:none;stroke:#000000;stroke-width:1px;stroke-linecap:butt;stroke-linejoin:miter;stroke-opacity:1;marker-start:url(#Arrow1Lstart);marker-end:url(#Arrow1Lend)"
     d="m 244.78088,98.307786 1.0372,94.385844"
     id="path3748" />
  <path
     id="path4576"
     d="m 400.36195,205.14012 -104.75792,1.0372"
     style="fill:none;stroke:#000000;stroke-width:1px;stroke-linecap:butt;stroke-linejoin:miter;stroke-opacity:1;marker-start:url(#Arrow1Lstart);marker-end:url(#Arrow1Lend)"
     sodipodi:nodetypes="cc" />
  <text
     xml:space="preserve"
     style="font-size:22px;font-style:normal;font-variant:normal;font-weight:normal;font-stretch:normal;text-align:start;line-height:125%;letter-spacing:0px;word-spacing:0px;writing-mode:lr;text-anchor:start;fill:#000000;fill-opacity:1;stroke:none;font-family:DejaVu Sans Mono;-inkscape-font-specification:DejaVu Sans Mono"
     x="206.40421"
     y="153.87048"
     id="text4578"
     sodipodi:linespacing="125%"><tspan
       sodipodi:role="line"
       id="tspan4580"
       x="206.40421"
       y="153.87048">-3db</tspan></text>
</svg>
